<svg width="255" height="45" viewBox="0 0 255 45" fill="none" xmlns="http://www.w3.org/2000/svg">
<path d="M71.3691 28.4688H72.4941V37H71.3691V30.4258L67.168 37H66.0371V28.4688H67.168V35.043L71.3691 28.4688ZM79.5547 37H78.4707V34.293H75.5586V37H74.4688V30.6602H75.5586V33.4082H78.4707V30.6602H79.5547V37ZM86.0117 31.5391H83.8848V37H82.8008V31.5391H80.7148V30.6602H86.0117V31.5391ZM89.2285 37.1172C88.3691 37.1172 87.6699 36.8359 87.1309 36.2734C86.5918 35.707 86.3223 34.9512 86.3223 34.0059V33.8066C86.3223 33.1777 86.4414 32.6172 86.6797 32.125C86.9219 31.6289 87.2578 31.2422 87.6875 30.9648C88.1211 30.6836 88.5898 30.543 89.0938 30.543C89.918 30.543 90.5586 30.8145 91.0156 31.3574C91.4727 31.9004 91.7012 32.6777 91.7012 33.6895V34.1406H87.4062C87.4219 34.7656 87.6035 35.2715 87.9512 35.6582C88.3027 36.041 88.748 36.2324 89.2871 36.2324C89.6699 36.2324 89.9941 36.1543 90.2598 35.998C90.5254 35.8418 90.7578 35.6348 90.957 35.377L91.6191 35.8926C91.0879 36.709 90.291 37.1172 89.2285 37.1172ZM89.0938 31.4336C88.6562 31.4336 88.2891 31.5938 87.9922 31.9141C87.6953 32.2305 87.5117 32.6758 87.4414 33.25H90.6172V33.168C90.5859 32.6172 90.4375 32.1914 90.1719 31.8906C89.9062 31.5859 89.5469 31.4336 89.0938 31.4336ZM98.3164 33.9004C98.3164 34.8652 98.0957 35.6426 97.6543 36.2324C97.2129 36.8223 96.6152 37.1172 95.8613 37.1172C95.0918 37.1172 94.4863 36.873 94.0449 36.3848V39.4375H92.9609V30.6602H93.9512L94.0039 31.3633C94.4453 30.8164 95.0586 30.543 95.8438 30.543C96.6055 30.543 97.207 30.8301 97.6484 31.4043C98.0938 31.9785 98.3164 32.7773 98.3164 33.8008V33.9004ZM97.2324 33.7773C97.2324 33.0625 97.0801 32.498 96.7754 32.084C96.4707 31.6699 96.0527 31.4629 95.5215 31.4629C94.8652 31.4629 94.373 31.7539 94.0449 32.3359V35.3652C94.3691 35.9434 94.8652 36.2324 95.5332 36.2324C96.0527 36.2324 96.4648 36.0273 96.7695 35.6172C97.0781 35.2031 97.2324 34.5898 97.2324 33.7773ZM104.879 37H103.795V34.293H100.883V37H99.793V30.6602H100.883V33.4082H103.795V30.6602H104.879V37ZM109.256 37.1172C108.396 37.1172 107.697 36.8359 107.158 36.2734C106.619 35.707 106.35 34.9512 106.35 34.0059V33.8066C106.35 33.1777 106.469 32.6172 106.707 32.125C106.949 31.6289 107.285 31.2422 107.715 30.9648C108.148 30.6836 108.617 30.543 109.121 30.543C109.945 30.543 110.586 30.8145 111.043 31.3574C111.5 31.9004 111.729 32.6777 111.729 33.6895V34.1406H107.434C107.449 34.7656 107.631 35.2715 107.979 35.6582C108.33 36.041 108.775 36.2324 109.314 36.2324C109.697 36.2324 110.021 36.1543 110.287 35.998C110.553 35.8418 110.785 35.6348 110.984 35.377L111.646 35.8926C111.115 36.709 110.318 37.1172 109.256 37.1172ZM109.121 31.4336C108.684 31.4336 108.316 31.5938 108.02 31.9141C107.723 32.2305 107.539 32.6758 107.469 33.25H110.645V33.168C110.613 32.6172 110.465 32.1914 110.199 31.8906C109.934 31.5859 109.574 31.4336 109.121 31.4336ZM117.629 31.5391H115.502V37H114.418V31.5391H112.332V30.6602H117.629V31.5391ZM120.939 33.8184H118.08V32.9336H120.939V33.8184ZM125.65 35.5645L127.807 30.6602H129.16V37H128.076V32.3887L126.025 37H125.275L123.184 32.2891V37H122.1V30.6602H123.506L125.65 35.5645ZM134.82 37C134.758 36.875 134.707 36.6523 134.668 36.332C134.164 36.8555 133.562 37.1172 132.863 37.1172C132.238 37.1172 131.725 36.9414 131.322 36.5898C130.924 36.2344 130.725 35.7852 130.725 35.2422C130.725 34.582 130.975 34.0703 131.475 33.707C131.979 33.3398 132.686 33.1562 133.596 33.1562H134.65V32.6582C134.65 32.2793 134.537 31.9785 134.311 31.7559C134.084 31.5293 133.75 31.416 133.309 31.416C132.922 31.416 132.598 31.5137 132.336 31.709C132.074 31.9043 131.943 32.1406 131.943 32.418H130.854C130.854 32.1016 130.965 31.7969 131.188 31.5039C131.414 31.207 131.719 30.9727 132.102 30.8008C132.488 30.6289 132.912 30.543 133.373 30.543C134.104 30.543 134.676 30.7266 135.09 31.0938C135.504 31.457 135.719 31.959 135.734 32.5996V35.5176C135.734 36.0996 135.809 36.5625 135.957 36.9062V37H134.82ZM133.021 36.1738C133.361 36.1738 133.684 36.0859 133.988 35.9102C134.293 35.7344 134.514 35.5059 134.65 35.2246V33.9238H133.801C132.473 33.9238 131.809 34.3125 131.809 35.0898C131.809 35.4297 131.922 35.6953 132.148 35.8867C132.375 36.0781 132.666 36.1738 133.021 36.1738ZM141.529 31.5566H138.605V37H137.516V30.6602H141.529V31.5566ZM146.387 37C146.324 36.875 146.273 36.6523 146.234 36.332C145.73 36.8555 145.129 37.1172 144.43 37.1172C143.805 37.1172 143.291 36.9414 142.889 36.5898C142.49 36.2344 142.291 35.7852 142.291 35.2422C142.291 34.582 142.541 34.0703 143.041 33.707C143.545 33.3398 144.252 33.1562 145.162 33.1562H146.217V32.6582C146.217 32.2793 146.104 31.9785 145.877 31.7559C145.65 31.5293 145.316 31.416 144.875 31.416C144.488 31.416 144.164 31.5137 143.902 31.709C143.641 31.9043 143.51 32.1406 143.51 32.418H142.42C142.42 32.1016 142.531 31.7969 142.754 31.5039C142.98 31.207 143.285 30.9727 143.668 30.8008C144.055 30.6289 144.479 30.543 144.939 30.543C145.67 30.543 146.242 30.7266 146.656 31.0938C147.07 31.457 147.285 31.959 147.301 32.5996V35.5176C147.301 36.0996 147.375 36.5625 147.523 36.9062V37H146.387ZM144.588 36.1738C144.928 36.1738 145.25 36.0859 145.555 35.9102C145.859 35.7344 146.08 35.5059 146.217 35.2246V33.9238H145.367C144.039 33.9238 143.375 34.3125 143.375 35.0898C143.375 35.4297 143.488 35.6953 143.715 35.8867C143.941 36.0781 144.232 36.1738 144.588 36.1738ZM152.486 32.3945C152.486 32.0977 152.373 31.8633 152.146 31.6914C151.92 31.5156 151.609 31.4277 151.215 31.4277C150.832 31.4277 150.512 31.5273 150.254 31.7266C150 31.9258 149.873 32.1602 149.873 32.4297H148.795C148.795 31.8789 149.025 31.4277 149.486 31.0762C149.947 30.7246 150.523 30.5488 151.215 30.5488C151.957 30.5488 152.535 30.709 152.949 31.0293C153.363 31.3457 153.57 31.7988 153.57 32.3887C153.57 32.6738 153.484 32.9355 153.312 33.1738C153.141 33.4121 152.896 33.6016 152.58 33.7422C153.318 33.9922 153.688 34.4844 153.688 35.2188C153.688 35.8008 153.463 36.2617 153.014 36.6016C152.564 36.9414 151.965 37.1113 151.215 37.1113C150.484 37.1113 149.881 36.9336 149.404 36.5781C148.932 36.2188 148.695 35.7344 148.695 35.125H149.773C149.773 35.4336 149.91 35.6992 150.184 35.9219C150.461 36.1406 150.805 36.25 151.215 36.25C151.629 36.25 151.963 36.1543 152.217 35.9629C152.471 35.7715 152.598 35.5234 152.598 35.2188C152.598 34.8633 152.49 34.6094 152.275 34.457C152.064 34.3008 151.734 34.2227 151.285 34.2227H150.201V33.3086H151.379C152.117 33.2891 152.486 32.9844 152.486 32.3945ZM159.195 30.6602H160.279V37H159.195V32.377L156.271 37H155.188V30.6602H156.271V35.2891L159.195 30.6602ZM167.199 37H166.115V34.293H163.203V37H162.113V30.6602H163.203V33.4082H166.115V30.6602H167.199V37ZM175.836 37C175.773 36.875 175.723 36.6523 175.684 36.332C175.18 36.8555 174.578 37.1172 173.879 37.1172C173.254 37.1172 172.74 36.9414 172.338 36.5898C171.939 36.2344 171.74 35.7852 171.74 35.2422C171.74 34.582 171.99 34.0703 172.49 33.707C172.994 33.3398 173.701 33.1562 174.611 33.1562H175.666V32.6582C175.666 32.2793 175.553 31.9785 175.326 31.7559C175.1 31.5293 174.766 31.416 174.324 31.416C173.938 31.416 173.613 31.5137 173.352 31.709C173.09 31.9043 172.959 32.1406 172.959 32.418H171.869C171.869 32.1016 171.98 31.7969 172.203 31.5039C172.43 31.207 172.734 30.9727 173.117 30.8008C173.504 30.6289 173.928 30.543 174.389 30.543C175.119 30.543 175.691 30.7266 176.105 31.0938C176.52 31.457 176.734 31.959 176.75 32.5996V35.5176C176.75 36.0996 176.824 36.5625 176.973 36.9062V37H175.836ZM174.037 36.1738C174.377 36.1738 174.699 36.0859 175.004 35.9102C175.309 35.7344 175.529 35.5059 175.666 35.2246V33.9238H174.816C173.488 33.9238 172.824 34.3125 172.824 35.0898C172.824 35.4297 172.938 35.6953 173.164 35.8867C173.391 36.0781 173.682 36.1738 174.037 36.1738ZM178.549 37V30.6602H181.021C181.865 30.6602 182.512 30.8086 182.961 31.1055C183.414 31.3984 183.641 31.8301 183.641 32.4004C183.641 32.6934 183.553 32.959 183.377 33.1973C183.201 33.4316 182.941 33.6113 182.598 33.7363C182.98 33.8262 183.287 34.002 183.518 34.2637C183.752 34.5254 183.869 34.8379 183.869 35.2012C183.869 35.7832 183.654 36.2285 183.225 36.5371C182.799 36.8457 182.195 37 181.414 37H178.549ZM179.633 34.2168V36.127H181.426C181.879 36.127 182.217 36.043 182.439 35.875C182.666 35.707 182.779 35.4707 182.779 35.166C182.779 34.5332 182.314 34.2168 181.385 34.2168H179.633ZM179.633 33.3496H181.033C182.049 33.3496 182.557 33.0527 182.557 32.459C182.557 31.8652 182.076 31.5586 181.115 31.5391H179.633V33.3496ZM189.945 31.5391H187.818V37H186.734V31.5391H184.648V30.6602H189.945V31.5391ZM190.467 33.7715C190.467 33.1504 190.588 32.5918 190.83 32.0957C191.076 31.5996 191.416 31.2168 191.85 30.9473C192.287 30.6777 192.785 30.543 193.344 30.543C194.207 30.543 194.904 30.8418 195.436 31.4395C195.971 32.0371 196.238 32.832 196.238 33.8242V33.9004C196.238 34.5176 196.119 35.0723 195.881 35.5645C195.646 36.0527 195.309 36.4336 194.867 36.707C194.43 36.9805 193.926 37.1172 193.355 37.1172C192.496 37.1172 191.799 36.8184 191.264 36.2207C190.732 35.623 190.467 34.832 190.467 33.8477V33.7715ZM191.557 33.9004C191.557 34.6035 191.719 35.168 192.043 35.5938C192.371 36.0195 192.809 36.2324 193.355 36.2324C193.906 36.2324 194.344 36.0176 194.668 35.5879C194.992 35.1543 195.154 34.5488 195.154 33.7715C195.154 33.0762 194.988 32.5137 194.656 32.084C194.328 31.6504 193.891 31.4336 193.344 31.4336C192.809 31.4336 192.377 31.6465 192.049 32.0723C191.721 32.498 191.557 33.1074 191.557 33.9004ZM201.084 32.3945C201.084 32.0977 200.971 31.8633 200.744 31.6914C200.518 31.5156 200.207 31.4277 199.812 31.4277C199.43 31.4277 199.109 31.5273 198.852 31.7266C198.598 31.9258 198.471 32.1602 198.471 32.4297H197.393C197.393 31.8789 197.623 31.4277 198.084 31.0762C198.545 30.7246 199.121 30.5488 199.812 30.5488C200.555 30.5488 201.133 30.709 201.547 31.0293C201.961 31.3457 202.168 31.7988 202.168 32.3887C202.168 32.6738 202.082 32.9355 201.91 33.1738C201.738 33.4121 201.494 33.6016 201.178 33.7422C201.916 33.9922 202.285 34.4844 202.285 35.2188C202.285 35.8008 202.061 36.2617 201.611 36.6016C201.162 36.9414 200.562 37.1113 199.812 37.1113C199.082 37.1113 198.479 36.9336 198.002 36.5781C197.529 36.2188 197.293 35.7344 197.293 35.125H198.371C198.371 35.4336 198.508 35.6992 198.781 35.9219C199.059 36.1406 199.402 36.25 199.812 36.25C200.227 36.25 200.561 36.1543 200.814 35.9629C201.068 35.7715 201.195 35.5234 201.195 35.2188C201.195 34.8633 201.088 34.6094 200.873 34.457C200.662 34.3008 200.332 34.2227 199.883 34.2227H198.799V33.3086H199.977C200.715 33.2891 201.084 32.9844 201.084 32.3945ZM207.605 37C207.543 36.875 207.492 36.6523 207.453 36.332C206.949 36.8555 206.348 37.1172 205.648 37.1172C205.023 37.1172 204.51 36.9414 204.107 36.5898C203.709 36.2344 203.51 35.7852 203.51 35.2422C203.51 34.582 203.76 34.0703 204.26 33.707C204.764 33.3398 205.471 33.1562 206.381 33.1562H207.436V32.6582C207.436 32.2793 207.322 31.9785 207.096 31.7559C206.869 31.5293 206.535 31.416 206.094 31.416C205.707 31.416 205.383 31.5137 205.121 31.709C204.859 31.9043 204.729 32.1406 204.729 32.418H203.639C203.639 32.1016 203.75 31.7969 203.973 31.5039C204.199 31.207 204.504 30.9727 204.887 30.8008C205.273 30.6289 205.697 30.543 206.158 30.543C206.889 30.543 207.461 30.7266 207.875 31.0938C208.289 31.457 208.504 31.959 208.52 32.5996V35.5176C208.52 36.0996 208.594 36.5625 208.742 36.9062V37H207.605ZM205.807 36.1738C206.146 36.1738 206.469 36.0859 206.773 35.9102C207.078 35.7344 207.299 35.5059 207.436 35.2246V33.9238H206.586C205.258 33.9238 204.594 34.3125 204.594 35.0898C204.594 35.4297 204.707 35.6953 204.934 35.8867C205.16 36.0781 205.451 36.1738 205.807 36.1738ZM215.404 37H214.32V31.5566H211.402V37H210.312V30.6602H215.404V37ZM221.932 37H220.842V34.7031C220.365 34.8281 219.877 34.8906 219.377 34.8906C218.584 34.8906 217.979 34.6875 217.561 34.2812C217.146 33.875 216.936 33.2969 216.928 32.5469V30.6543H218.012V32.582C218.031 33.5273 218.486 34 219.377 34C219.877 34 220.365 33.9375 220.842 33.8125V30.6602H221.932V37ZM227.586 37C227.523 36.875 227.473 36.6523 227.434 36.332C226.93 36.8555 226.328 37.1172 225.629 37.1172C225.004 37.1172 224.49 36.9414 224.088 36.5898C223.689 36.2344 223.49 35.7852 223.49 35.2422C223.49 34.582 223.74 34.0703 224.24 33.707C224.744 33.3398 225.451 33.1562 226.361 33.1562H227.416V32.6582C227.416 32.2793 227.303 31.9785 227.076 31.7559C226.85 31.5293 226.516 31.416 226.074 31.416C225.688 31.416 225.363 31.5137 225.102 31.709C224.84 31.9043 224.709 32.1406 224.709 32.418H223.619C223.619 32.1016 223.73 31.7969 223.953 31.5039C224.18 31.207 224.484 30.9727 224.867 30.8008C225.254 30.6289 225.678 30.543 226.139 30.543C226.869 30.543 227.441 30.7266 227.855 31.0938C228.27 31.457 228.484 31.959 228.5 32.5996V35.5176C228.5 36.0996 228.574 36.5625 228.723 36.9062V37H227.586ZM225.787 36.1738C226.127 36.1738 226.449 36.0859 226.754 35.9102C227.059 35.7344 227.279 35.5059 227.416 35.2246V33.9238H226.566C225.238 33.9238 224.574 34.3125 224.574 35.0898C224.574 35.4297 224.688 35.6953 224.914 35.8867C225.141 36.0781 225.432 36.1738 225.787 36.1738ZM232.742 36.2324C233.129 36.2324 233.467 36.1152 233.756 35.8809C234.045 35.6465 234.205 35.3535 234.236 35.002H235.262C235.242 35.3652 235.117 35.7109 234.887 36.0391C234.656 36.3672 234.348 36.6289 233.961 36.8242C233.578 37.0195 233.172 37.1172 232.742 37.1172C231.879 37.1172 231.191 36.8301 230.68 36.2559C230.172 35.6777 229.918 34.8887 229.918 33.8887V33.707C229.918 33.0898 230.031 32.541 230.258 32.0605C230.484 31.5801 230.809 31.207 231.23 30.9414C231.656 30.6758 232.158 30.543 232.736 30.543C233.447 30.543 234.037 30.7559 234.506 31.1816C234.979 31.6074 235.23 32.1602 235.262 32.8398H234.236C234.205 32.4297 234.049 32.0938 233.768 31.832C233.49 31.5664 233.146 31.4336 232.736 31.4336C232.186 31.4336 231.758 31.6328 231.453 32.0312C231.152 32.4258 231.002 32.998 231.002 33.748V33.9531C231.002 34.6836 231.152 35.2461 231.453 35.6406C231.754 36.0352 232.184 36.2324 232.742 36.2324ZM241.191 31.5391H239.064V37H237.98V31.5391H235.895V30.6602H241.191V31.5391ZM244.408 37.1172C243.549 37.1172 242.85 36.8359 242.311 36.2734C241.771 35.707 241.502 34.9512 241.502 34.0059V33.8066C241.502 33.1777 241.621 32.6172 241.859 32.125C242.102 31.6289 242.438 31.2422 242.867 30.9648C243.301 30.6836 243.77 30.543 244.273 30.543C245.098 30.543 245.738 30.8145 246.195 31.3574C246.652 31.9004 246.881 32.6777 246.881 33.6895V34.1406H242.586C242.602 34.7656 242.783 35.2715 243.131 35.6582C243.482 36.041 243.928 36.2324 244.467 36.2324C244.85 36.2324 245.174 36.1543 245.439 35.998C245.705 35.8418 245.938 35.6348 246.137 35.377L246.799 35.8926C246.268 36.709 245.471 37.1172 244.408 37.1172ZM244.273 31.4336C243.836 31.4336 243.469 31.5938 243.172 31.9141C242.875 32.2305 242.691 32.6758 242.621 33.25H245.797V33.168C245.766 32.6172 245.617 32.1914 245.352 31.8906C245.086 31.5859 244.727 31.4336 244.273 31.4336ZM252.242 30.6602H253.326V37H252.242V32.377L249.318 37H248.234V30.6602H249.318V35.2891L252.242 30.6602ZM252.535 28.3516C252.535 28.8242 252.373 29.2051 252.049 29.4941C251.729 29.7793 251.307 29.9219 250.783 29.9219C250.26 29.9219 249.836 29.7773 249.512 29.4883C249.188 29.1992 249.025 28.8203 249.025 28.3516H249.91C249.91 28.625 249.984 28.8398 250.133 28.9961C250.281 29.1484 250.498 29.2246 250.783 29.2246C251.057 29.2246 251.27 29.1484 251.422 28.9961C251.578 28.8438 251.656 28.6289 251.656 28.3516H252.535Z" fill="white"/>
<path d="M73.7637 16.7422C73.3945 17.1842 72.8727 17.5283 72.1982 17.7744C71.5238 18.016 70.7764 18.1367 69.9561 18.1367C69.0947 18.1367 68.3382 17.9499 67.6865 17.5762C67.0394 17.1979 66.5381 16.651 66.1826 15.9355C65.8317 15.2201 65.6517 14.3792 65.6426 13.4131V12.7363C65.6426 11.7428 65.8089 10.8838 66.1416 10.1592C66.4788 9.43001 66.9619 8.87402 67.5908 8.49121C68.2243 8.10384 68.9648 7.91016 69.8125 7.91016C70.9928 7.91016 71.9157 8.19271 72.5811 8.75781C73.2464 9.31836 73.6406 10.1364 73.7637 11.2119H71.7676C71.6764 10.6423 71.4736 10.2253 71.1592 9.96094C70.8493 9.69661 70.4209 9.56445 69.874 9.56445C69.1768 9.56445 68.6458 9.8265 68.2812 10.3506C67.9167 10.8747 67.7321 11.654 67.7275 12.6885V13.3242C67.7275 14.3678 67.9258 15.1562 68.3223 15.6895C68.7188 16.2227 69.2998 16.4893 70.0654 16.4893C70.8356 16.4893 71.3848 16.3252 71.7129 15.9971V14.2812H69.8467V12.7705H73.7637V16.7422ZM81.0508 15.9492H77.4551L76.7715 18H74.5908L78.2959 8.04688H80.1963L83.9219 18H81.7412L81.0508 15.9492ZM78.0088 14.2881H80.4971L79.2461 10.5625L78.0088 14.2881ZM84.8516 18V8.04688H87.9141C88.7891 8.04688 89.5706 8.24512 90.2588 8.6416C90.9515 9.03353 91.4915 9.59408 91.8789 10.3232C92.2663 11.0479 92.46 11.8727 92.46 12.7979V13.2559C92.46 14.181 92.2686 15.0036 91.8857 15.7236C91.5075 16.4437 90.972 17.002 90.2793 17.3984C89.5866 17.7949 88.805 17.9954 87.9346 18H84.8516ZM86.9023 9.70801V16.3525H87.8936C88.6956 16.3525 89.3086 16.0905 89.7324 15.5664C90.1562 15.0423 90.3727 14.2926 90.3818 13.3174V12.791C90.3818 11.7793 90.1722 11.0137 89.7529 10.4941C89.3337 9.97005 88.7207 9.70801 87.9141 9.70801H86.9023ZM100.123 8.04688L102.68 15.2656L105.223 8.04688H107.916V18H105.858V15.2793L106.063 10.583L103.377 18H101.969L99.2891 10.5898L99.4941 15.2793V18H97.4434V8.04688H100.123ZM117.883 13.249C117.883 14.2288 117.71 15.0879 117.363 15.8262C117.017 16.5645 116.52 17.1341 115.873 17.5352C115.23 17.9362 114.492 18.1367 113.658 18.1367C112.833 18.1367 112.097 17.9385 111.45 17.542C110.803 17.1455 110.302 16.5804 109.946 15.8467C109.591 15.1084 109.411 14.2607 109.406 13.3037V12.8115C109.406 11.8317 109.582 10.9704 109.933 10.2275C110.288 9.48014 110.787 8.9082 111.43 8.51172C112.077 8.11068 112.815 7.91016 113.645 7.91016C114.474 7.91016 115.21 8.11068 115.853 8.51172C116.5 8.9082 116.999 9.48014 117.35 10.2275C117.705 10.9704 117.883 11.8294 117.883 12.8047V13.249ZM115.805 12.7979C115.805 11.7542 115.618 10.9613 115.244 10.4189C114.87 9.87663 114.337 9.60547 113.645 9.60547C112.956 9.60547 112.425 9.87435 112.052 10.4121C111.678 10.9453 111.489 11.7292 111.484 12.7637V13.249C111.484 14.2653 111.671 15.0537 112.045 15.6143C112.419 16.1748 112.956 16.4551 113.658 16.4551C114.346 16.4551 114.875 16.1862 115.244 15.6484C115.613 15.1061 115.8 14.3177 115.805 13.2832V12.7979ZM126.277 9.70801H123.229V18H121.178V9.70801H118.17V8.04688H126.277V9.70801ZM135.438 13.249C135.438 14.2288 135.264 15.0879 134.918 15.8262C134.572 16.5645 134.075 17.1341 133.428 17.5352C132.785 17.9362 132.047 18.1367 131.213 18.1367C130.388 18.1367 129.652 17.9385 129.005 17.542C128.358 17.1455 127.856 16.5804 127.501 15.8467C127.146 15.1084 126.965 14.2607 126.961 13.3037V12.8115C126.961 11.8317 127.136 10.9704 127.487 10.2275C127.843 9.48014 128.342 8.9082 128.984 8.51172C129.632 8.11068 130.37 7.91016 131.199 7.91016C132.029 7.91016 132.765 8.11068 133.407 8.51172C134.054 8.9082 134.553 9.48014 134.904 10.2275C135.26 10.9704 135.438 11.8294 135.438 12.8047V13.249ZM133.359 12.7979C133.359 11.7542 133.173 10.9613 132.799 10.4189C132.425 9.87663 131.892 9.60547 131.199 9.60547C130.511 9.60547 129.98 9.87435 129.606 10.4121C129.233 10.9453 129.044 11.7292 129.039 12.7637V13.249C129.039 14.2653 129.226 15.0537 129.6 15.6143C129.973 16.1748 130.511 16.4551 131.213 16.4551C131.901 16.4551 132.43 16.1862 132.799 15.6484C133.168 15.1061 133.355 14.3177 133.359 13.2832V12.7979ZM140.612 14.3564H138.979V18H136.928V8.04688H140.626C141.802 8.04688 142.709 8.30892 143.347 8.83301C143.985 9.3571 144.304 10.0977 144.304 11.0547C144.304 11.7337 144.156 12.3011 143.859 12.7568C143.568 13.208 143.123 13.568 142.526 13.8369L144.68 17.9043V18H142.479L140.612 14.3564ZM138.979 12.6953H140.633C141.148 12.6953 141.547 12.5654 141.829 12.3057C142.112 12.0413 142.253 11.679 142.253 11.2188C142.253 10.7493 142.118 10.3802 141.85 10.1113C141.585 9.84245 141.177 9.70801 140.626 9.70801H138.979V12.6953ZM151.03 15.3887C151.03 15.0013 150.894 14.7051 150.62 14.5C150.347 14.2904 149.854 14.0716 149.144 13.8438C148.433 13.6113 147.87 13.3835 147.455 13.1602C146.325 12.5495 145.76 11.7269 145.76 10.6924C145.76 10.1546 145.91 9.67611 146.211 9.25684C146.516 8.83301 146.951 8.5026 147.517 8.26562C148.086 8.02865 148.724 7.91016 149.431 7.91016C150.142 7.91016 150.775 8.04004 151.331 8.2998C151.887 8.55501 152.318 8.91732 152.623 9.38672C152.933 9.85612 153.088 10.3893 153.088 10.9863H151.037C151.037 10.5306 150.894 10.1774 150.606 9.92676C150.319 9.67155 149.916 9.54395 149.396 9.54395C148.895 9.54395 148.506 9.65104 148.228 9.86523C147.95 10.0749 147.811 10.3529 147.811 10.6992C147.811 11.0228 147.972 11.2939 148.296 11.5127C148.624 11.7314 149.105 11.9365 149.738 12.1279C150.905 12.4788 151.755 12.9141 152.288 13.4336C152.821 13.9531 153.088 14.6003 153.088 15.375C153.088 16.2363 152.762 16.9131 152.11 17.4053C151.459 17.8929 150.581 18.1367 149.479 18.1367C148.713 18.1367 148.016 17.9977 147.387 17.7197C146.758 17.4372 146.277 17.0521 145.944 16.5645C145.616 16.0768 145.452 15.5117 145.452 14.8691H147.51C147.51 15.9674 148.166 16.5166 149.479 16.5166C149.966 16.5166 150.347 16.4186 150.62 16.2227C150.894 16.0221 151.03 15.7441 151.03 15.3887Z" fill="white"/>
<path d="M44.7803 21.2197L43.2803 19.7197C43.1396 19.5791 42.9489 19.5 42.75 19.5H40.5C40.0858 19.5 39.75 19.8358 39.75 20.25V24H38.25V18.75C38.25 18.3358 37.9142 18 37.5 18H32.6512L29.8762 13.8337C29.7367 13.6245 29.5015 13.4992 29.25 13.5H24.75V12H30C30.4142 12 30.75 11.6642 30.75 11.25V8.25C30.75 7.83581 30.4142 7.5 30 7.5H15C14.5858 7.5 14.25 7.83581 14.25 8.25V11.25C14.25 11.6642 14.5858 12 15 12H20.25V13.5H15.75C15.4993 13.5 15.2651 13.6252 15.126 13.8337L12.3488 18H8.25C7.83581 18 7.5 18.3358 7.5 18.75V23.25H6V18.75C6 18.3358 5.66419 18 5.25 18H2.25C1.99931 18 1.76513 18.1252 1.626 18.3337L0.126 20.5837C0.0440625 20.7071 0.00028125 20.8519 0 21V23.25C0.00028125 23.3981 0.0440625 23.5429 0.126 23.6662L1.5 25.725V32.25C1.5 32.6642 1.83581 33 2.25 33H5.25C5.66419 33 6 32.6642 6 32.25V27.75H7.5V32.25C7.5 32.6642 7.83581 33 8.25 33H12.3488L15.1238 37.1662C15.2633 37.3755 15.4985 37.5007 15.75 37.5H37.5C37.9142 37.5 38.25 37.1642 38.25 36.75V30H39.75V35.25C39.75 35.6642 40.0858 36 40.5 36H42.75C42.9489 36 43.1396 35.9209 43.2803 35.7802L44.7803 34.2802C44.9209 34.1396 45 33.9489 45 33.75V21.75C45 21.5511 44.9209 21.3604 44.7803 21.2197ZM4.5 24V31.5H3V25.5C2.99972 25.3519 2.95594 25.2071 2.874 25.0837L1.5 23.025V21.225L2.65125 19.5H4.5V24ZM7.5 26.25H6V24.75H7.5V26.25ZM15.75 10.5V9H29.25V10.5H15.75ZM23.25 12V13.5H21.75V12H23.25ZM33.75 36H16.1512L13.3762 31.8337C13.2367 31.6245 13.0015 31.4992 12.75 31.5H9V19.5H12.75C13.0007 19.5 13.2349 19.3748 13.374 19.1662L16.1512 15H28.8488L31.6238 19.1662C31.7633 19.3755 31.9985 19.5007 32.25 19.5H33.75V36ZM36.75 24.75V36H35.25V19.5H36.75V24.75ZM39.75 28.5H38.25V25.5H39.75V28.5ZM43.5 33.4395L42.4395 34.5H41.25V21H42.4395L43.5 22.0605V33.4395Z" fill="white"/>
<path d="M29.0528 24.2431C28.9107 24.0881 28.7102 24 28.5 24H24.9352L26.232 18.1627C26.3218 17.7584 26.0669 17.3578 25.6625 17.2679C25.4235 17.2147 25.1735 17.2817 24.993 17.4472L15.993 25.6972C15.6877 25.9772 15.6672 26.4516 15.9472 26.7569C16.0893 26.9119 16.2898 27 16.5 27H20.0647L18.768 32.8372C18.6782 33.2416 18.9331 33.6422 19.3374 33.7321C19.5765 33.7852 19.8264 33.7183 20.007 33.5527L29.007 25.3027C29.3122 25.0228 29.3328 24.5483 29.0528 24.2431ZM20.7487 30.8377L21.732 26.4127C21.8219 26.0084 21.567 25.6077 21.1626 25.5179C21.1092 25.506 21.0547 25.5 21 25.5H18.4282L24.2512 20.1622L23.268 24.5872C23.1781 24.9916 23.433 25.3923 23.8373 25.4821C23.8908 25.494 23.9452 25.4999 24 25.5H26.5717L20.7487 30.8377Z" fill="white"/>
<path d="M12 24H10.5V30H12V24Z" fill="white"/>
<path d="M12 21H10.5V22.5H12V21Z" fill="white"/>
</svg>
